HIERARCHY
ROOT Hips
{
  OFFSET 54.5205 85.7129 14.9015
  CHANNELS 6 Xposition Yposition Zposition Zrotation Xrotation Yrotation
  JOINT spine
  {
    OFFSET 0 6.3926 0.367606
    CHANNELS 3 Zrotation Xrotation Yrotation
    JOINT spine1
    {
      OFFSET 0 9.17611 0
      CHANNELS 3 Zrotation Xrotation Yrotation
      JOINT spine2
      {
        OFFSET 0 8.79238 0
        CHANNELS 3 Zrotation Xrotation Yrotation
        JOINT Neck
        {
          OFFSET 0 22.5737 1.07624
          CHANNELS 3 Zrotation Xrotation Yrotation
          JOINT Head
          {
            OFFSET 0 6.82011 0
            CHANNELS 3 Zrotation Xrotation Yrotation
            End Site
            {
              OFFSET 0 16.5085 -5.44427
            }
          }
        }
        JOINT RightShoulder
        {
          OFFSET -3.70221 9.49509 -0.515508
          CHANNELS 3 Zrotation Xrotation Yrotation
          JOINT RightArm
          {
            OFFSET 0 12.4537 0
            CHANNELS 3 Zrotation Xrotation Yrotation
            JOINT RightArmRoll
            {
              OFFSET 0 6.28686 0
              CHANNELS 3 Zrotation Xrotation Yrotation
              JOINT RightForeArm
              {
                OFFSET 0 18.3114 0
                CHANNELS 3 Zrotation Xrotation Yrotation
                JOINT RightForeArmRoll
                {
                  OFFSET 0 7.05483 0
                  CHANNELS 3 Zrotation Xrotation Yrotation
                  JOINT RightHand
                  {
                    OFFSET 0 14.1575 0
                    CHANNELS 3 Zrotation Xrotation Yrotation
                    End Site
                    {
                      OFFSET 0 0 0
                    }
                  }
                }
              }
            }
          }
        }
        JOINT LeftShoulder
        {
          OFFSET 3.70221 9.49509 -0.515508
          CHANNELS 3 Zrotation Xrotation Yrotation
          JOINT LeftArm
          {
            OFFSET 0 12.4537 0
            CHANNELS 3 Zrotation Xrotation Yrotation
            JOINT LeftArmRoll
            {
              OFFSET 0 6.28686 0
              CHANNELS 3 Zrotation Xrotation Yrotation
              JOINT LeftForeArm
              {
                OFFSET 0 18.3114 0
                CHANNELS 3 Zrotation Xrotation Yrotation
                JOINT LeftForeArmRoll
                {
                  OFFSET 0 7.05483 0
                  CHANNELS 3 Zrotation Xrotation Yrotation
                  JOINT LeftHand
                  {
                    OFFSET 0 14.1575 0
                    CHANNELS 3 Zrotation Xrotation Yrotation
                    End Site
                    {
                      OFFSET 0 0 0
                    }
                  }
                }
              }
            }
          }
        }
      }
    }
  }
  JOINT RightUpLeg
  {
    OFFSET -5.66616 -1.03903 -0.87161
    CHANNELS 3 Zrotation Xrotation Yrotation
    JOINT RightUpLegRoll
    {
      OFFSET 0 16.6005 0
      CHANNELS 3 Zrotation Xrotation Yrotation
      JOINT RightLeg
      {
        OFFSET 0 -20.5572 0
        CHANNELS 3 Zrotation Xrotation Yrotation
        JOINT RightLegRoll
        {
          OFFSET 0 20.6244 0
          CHANNELS 3 Zrotation Xrotation Yrotation
          JOINT RightFoot
          {
            OFFSET 0 17.1664 0
            CHANNELS 3 Zrotation Xrotation Yrotation
            JOINT RightToeBase
            {
              OFFSET 0 14.3502 0
              CHANNELS 3 Zrotation Xrotation Yrotation
              End Site
              {
                OFFSET 0.00608252 6.94971 -0.801061
              }
            }
          }
        }
      }
    }
  }
  JOINT LeftUpLeg
  {
    OFFSET 5.66616 -1.03903 -0.87161
    CHANNELS 3 Zrotation Xrotation Yrotation
    JOINT LeftUpLegRoll
    {
      OFFSET 0 16.6006 0
      CHANNELS 3 Zrotation Xrotation Yrotation
      JOINT LeftLeg
      {
        OFFSET 0 20.5571 0
        CHANNELS 3 Zrotation Xrotation Yrotation
        JOINT LeftLegRoll
        {
          OFFSET 0 20.8151 0
          CHANNELS 3 Zrotation Xrotation Yrotation
          JOINT LeftFoot
          {
            OFFSET 0 16.9757 0
            CHANNELS 3 Zrotation Xrotation Yrotation
            JOINT LeftToeBase
            {
              OFFSET 0 14.3502 0
              CHANNELS 3 Zrotation Xrotation Yrotation
              End Site
              {
                OFFSET -0.0272592 6.94971 -0.801061
              }
            }
          }
        }
      }
    }
  }
}
MOTION
Frames: 6
Frame Time: 0.00208333
54.1445 85.7099 14.9462 -2.31384 -3.9694 -3.73474 -0.0915684 -0.886078 -0.149385 -0.181825 2.23091 -0.298742 -0.178419 3.87596 -0.295936 5.15311 5.1723 0.497912 -4.4173 0.161602 1.4399 63.2031 -2.66184 -2.02156 107.844 17.4335 3.28219 1.39977e-005 -1.30349e-006 -1.47741e-006 14.6408 4.03616 -0.84545 -8.49619e-007 -6.51635e-006 -3.00322 8.0289 -4.95147 0.697713 -53.4582 -0.171517 -0.600033 -113.203 15.186 -0.350176 4.44927e-006 -2.86309e-006 2.19553e-006 -9.6761 2.85311 0.788363 -5.30471e-007 -3.84496e-006 3 -8.02897 -4.95148 -0.697695 176.911 -2.67891 0.627742 180 7.01536e-015 178.876 176.436 5.53434 179.796 6.4777e-007 -6.66021e-007 0.0503591 -18.3664 67.5929 19.2021 8.13649 25.2327 -3.48774 -172.778 -2.27252 -0.913333 4.54188e-006 -4.6773e-006 -1.06214 -0.977773 -8.36134 0.548009 7.89379e-007 1.71256e-006 -0.0685389 18.5919 69.7174 -21.0004 -8.13651 25.2329 3.48744 
54.1472 85.7098 14.956 -2.31838 -3.96477 -3.73693 -0.0912379 -0.887612 -0.149896 -0.181402 2.22784 -0.299477 -0.177986 3.87289 -0.296705 5.1491 5.18027 0.496646 -4.41281 0.168232 1.43851 63.201 -2.65295 -2.01632 107.851 17.435 3.27519 1.39977e-005 -1.30349e-006 -1.47741e-006 14.6424 4.04369 -0.84585 -8.49619e-007 -6.51635e-006 -3.00322 8.0289 -4.95147 0.697713 -53.457 -0.17382 -0.598632 -113.208 15.1846 -0.338964 4.44927e-006 -2.86309e-006 2.19553e-006 -9.68238 2.87049 0.790067 -5.30471e-007 -3.84496e-006 3 -8.02897 -4.95148 -0.697695 176.92 -2.67487 0.618216 180 7.01536e-015 178.875 176.445 5.5332 179.795 6.4777e-007 -6.66021e-007 0.0503591 -18.367 67.5938 19.2028 8.13649 25.2327 -3.48774 -172.77 -2.26095 -0.918031 4.54188e-006 -4.6773e-006 -1.06221 -0.978707 -8.37347 0.548051 7.89379e-007 1.71256e-006 -0.0685389 18.5882 69.7216 -21.0039 -8.13651 25.2329 3.48744 
54.1344 85.6989 14.9524 -2.32299 -3.95993 -3.73922 -0.0908679 -0.889202 -0.150438 -0.18094 2.22466 -0.300278 -0.177513 3.86972 -0.297541 5.1449 5.18857 0.495617 -4.40825 0.174581 1.43731 63.1987 -2.64359 -2.0108 107.858 17.4361 3.2681 1.39977e-005 -1.30349e-006 -1.47741e-006 14.6441 4.05151 -0.846264 -8.49619e-007 -6.51635e-006 -3.00322 8.0289 -4.95147 0.697713 -53.4556 -0.17627 -0.597158 -113.214 15.183 -0.327952 4.44927e-006 -2.86309e-006 2.19553e-006 -9.6885 2.88785 0.791775 -5.30471e-007 -3.84496e-006 3 -8.02897 -4.95148 -0.697695 176.928 -2.67064 0.608442 180 7.01536e-015 178.875 176.454 5.53202 179.794 6.4777e-007 -6.66021e-007 0.0503591 -18.3676 67.5947 19.2035 8.13649 25.2327 -3.48774 -172.761 -2.24905 -0.922827 4.54188e-006 -4.6773e-006 -1.06229 -0.979698 -8.38587 0.548104 7.89379e-007 1.71256e-006 -0.0685389 18.5846 69.7259 -21.0075 -8.13651 25.2329 3.48744 
54.1397 85.7021 14.9522 -2.32764 -3.95494 -3.74158 -0.0904703 -0.89083 -0.151002 -0.18045 2.22141 -0.301125 -0.177012 3.86646 -0.298426 5.14057 5.19711 0.494754 -4.40363 0.180734 1.43625 63.1964 -2.6339 -2.00509 107.865 17.437 3.26095 1.39977e-005 -1.30349e-006 -1.47741e-006 14.6458 4.05954 -0.846688 -8.49619e-007 -6.51635e-006 -3.00322 8.0289 -4.95147 0.697713 -53.454 -0.178823 -0.595633 -113.22 15.1812 -0.317081 4.44927e-006 -2.86309e-006 2.19553e-006 -9.6945 2.9052 0.793486 -5.30471e-007 -3.84496e-006 3 -8.02897 -4.95148 -0.697695 176.937 -2.66627 0.598494 180 7.01536e-015 178.875 176.464 5.53088 179.793 6.4777e-007 -6.66021e-007 0.0503591 -18.3681 67.5955 19.2042 8.13649 25.2327 -3.48774 -172.753 -2.23691 -0.927691 4.54188e-006 -4.6773e-006 -1.06239 -0.980728 -8.39848 0.548165 7.89379e-007 1.71256e-006 -0.0685389 18.5809 69.7303 -21.0112 -8.13651 25.2329 3.48744 
54.135 85.7099 14.9517 -2.33232 -3.94986 -3.74399 -0.090057 -0.89248 -0.151578 -0.179944 2.21811 -0.301998 -0.176494 3.86316 -0.299337 5.13616 5.20579 0.493986 -4.39898 0.186774 1.43527 63.194 -2.62402 -1.99926 107.872 17.4378 3.25376 1.39977e-005 -1.30349e-006 -1.47741e-006 14.6475 4.06769 -0.847118 -8.49619e-007 -6.51635e-006 -3.00322 8.0289 -4.95147 0.697713 -53.4524 -0.181435 -0.594079 -113.226 15.1792 -0.30629 4.44927e-006 -2.86309e-006 2.19553e-006 -9.70044 2.92254 0.795199 -5.30471e-007 -3.84496e-006 3 -8.02897 -4.95148 -0.697695 176.946 -2.66184 0.588448 180 7.01536e-015 178.875 176.474 5.52973 179.792 6.4777e-007 -6.66021e-007 0.0503591 -18.3687 67.5964 19.2049 8.13649 25.2327 -3.48774 -172.744 -2.22464 -0.932594 4.54188e-006 -4.6773e-006 -1.06249 -0.98178 -8.4112 0.54823 7.89379e-007 1.71256e-006 -0.0685389 18.5773 69.7347 -21.015 -8.13651 25.2329 3.48744 
54.1256 85.7051 14.9357 -2.337 -3.94476 -3.7464 -0.0896398 -0.894136 -0.152156 -0.179434 2.21479 -0.302878 -0.175972 3.85985 -0.300255 5.13173 5.2145 0.493241 -4.39433 0.192786 1.43432 63.1916 -2.61409 -1.9934 107.878 17.4386 3.24656 1.39977e-005 -1.30349e-006 -1.47741e-006 14.6493 4.07586 -0.84755 -8.49619e-007 -6.51635e-006 -3.00322 8.0289 -4.95147 0.697713 -53.4507 -0.184062 -0.592518 -113.232 15.1772 -0.295519 4.44927e-006 -2.86309e-006 2.19553e-006 -9.70635 2.93988 0.796913 -5.30471e-007 -3.84496e-006 3 -8.02897 -4.95148 -0.697695 176.954 -2.65738 0.578376 180 7.01536e-015 178.875 176.483 5.52857 179.791 6.4777e-007 -6.66021e-007 0.0503591 -18.3693 67.5973 19.2056 8.13649 25.2327 -3.48774 -172.736 -2.21233 -0.937506 4.54188e-006 -4.6773e-006 -1.06259 -0.982838 -8.42395 0.548297 7.89379e-007 1.71256e-006 -0.0685389 18.5737 69.7392 -21.0188 -8.13651 25.2329 3.48744 
